<svg width="44" height="48" viewBox="0 0 44 48" fill="none" xmlns="http://www.w3.org/2000/svg">
<circle cx="21.9981" cy="2.65244" r="2.65244" fill="black" style="fill:black;fill-opacity:1;"/>
<circle cx="21.9981" cy="38.0152" r="2.65244" fill="black" style="fill:black;fill-opacity:1;"/>
<circle cx="21.9981" cy="9.72495" r="2.65244" fill="black" style="fill:black;fill-opacity:1;"/>
<circle cx="21.9981" cy="45.0877" r="2.65244" fill="black" style="fill:black;fill-opacity:1;"/>
<circle cx="40.3729" cy="13.2614" r="2.65244" transform="rotate(60 40.3729 13.2614)" fill="black" style="fill:black;fill-opacity:1;"/>
<circle cx="9.74789" cy="30.9428" r="2.65244" transform="rotate(60 9.74789 30.9428)" fill="black" style="fill:black;fill-opacity:1;"/>
<circle cx="34.2479" cy="16.7976" r="2.65244" transform="rotate(60 34.2479 16.7976)" fill="black" style="fill:black;fill-opacity:1;"/>
<circle cx="3.62289" cy="34.479" r="2.65244" transform="rotate(60 3.62289 34.479)" fill="black" style="fill:black;fill-opacity:1;"/>
<circle cx="3.6233" cy="13.2608" r="2.65244" transform="rotate(-60 3.6233 13.2608)" fill="black" style="fill:black;fill-opacity:1;"/>
<circle cx="34.2483" cy="30.9423" r="2.65244" transform="rotate(-60 34.2483 30.9423)" fill="black" style="fill:black;fill-opacity:1;"/>
<circle cx="9.7483" cy="16.7972" r="2.65244" transform="rotate(-60 9.7483 16.7972)" fill="black" style="fill:black;fill-opacity:1;"/>
<circle cx="40.3733" cy="34.4786" r="2.65244" transform="rotate(-60 40.3733 34.4786)" fill="black" style="fill:black;fill-opacity:1;"/>
</svg>
