<svg width="924" height="202" viewBox="0 0 924 202" fill="none" xmlns="http://www.w3.org/2000/svg">
<path opacity="0.349" fill-rule="evenodd" clip-rule="evenodd" d="M876.997 201.84H47.0032C21.2967 201.84 0.461548 181.005 0.461548 155.299V46.7014C0.461548 20.9948 21.2967 0.159668 47.0032 0.159668H876.997C902.703 0.159668 923.538 20.9948 923.538 46.7014V155.299C923.538 181.005 902.703 201.84 876.997 201.84ZM915.782 46.7014C915.782 25.2844 898.414 7.91662 876.997 7.91662H47.0032C25.5863 7.91662 8.2185 25.2844 8.2185 46.7014V155.299C8.2185 176.716 25.5863 194.083 47.0032 194.083H876.997C898.414 194.083 915.782 176.716 915.782 155.299V46.7014Z" fill="#737373" style="fill:#737373;fill:color(display-p3 0.4510 0.4510 0.4510);fill-opacity:1;"/>
<path opacity="0.502" fill-rule="evenodd" clip-rule="evenodd" d="M471.308 143.175H461.185L469.02 123.829L453.429 84.4855H464.125L473.922 111.262L483.797 84.4855H494.494L471.308 143.175ZM432.446 126.28C428.94 126.28 425.341 124.977 422.083 122.44V125.303H411.634V66.6057H422.083V87.2624C425.341 84.8113 428.94 83.5081 432.446 83.5081C443.383 83.5081 450.892 92.32 450.892 104.894C450.892 117.46 443.383 126.28 432.446 126.28ZM430.243 92.4829C427.388 92.4829 424.526 93.7085 422.083 96.1597V113.628C424.526 116.072 427.388 117.297 430.243 117.297C436.123 117.297 440.203 112.24 440.203 104.894C440.203 97.5482 436.123 92.4829 430.243 92.4829ZM369.335 122.44C366.155 124.977 362.564 126.28 358.972 126.28C348.112 126.28 340.526 117.46 340.526 104.894C340.526 92.32 348.112 83.5081 358.972 83.5081C362.564 83.5081 366.155 84.8113 369.335 87.2624V66.6057H379.869V125.303H369.335V122.44ZM369.335 96.1597C366.97 93.7085 364.115 92.4829 361.26 92.4829C355.295 92.4829 351.215 97.5482 351.215 104.894C351.215 112.24 355.295 117.297 361.26 117.297C364.115 117.297 366.97 116.072 369.335 113.628V96.1597ZM307.132 107.749C307.784 113.954 312.686 118.197 319.536 118.197C323.298 118.197 327.456 116.809 331.699 114.357V123.1C327.052 125.217 322.398 126.28 317.822 126.28C305.496 126.28 296.847 117.297 296.847 104.568C296.847 92.2424 305.333 83.5081 317.007 83.5081C327.704 83.5081 334.964 91.9166 334.964 103.909C334.964 105.057 334.964 106.36 334.802 107.749H307.132ZM316.604 91.5831C311.538 91.5831 307.621 95.3452 307.132 100.977H324.927C324.601 95.4228 321.258 91.5831 316.604 91.5831ZM279.619 98.0369V125.303H269.17V84.4855H279.619V88.5656C282.558 85.2999 286.15 83.5081 289.656 83.5081C290.804 83.5081 291.944 83.5857 293.085 83.9114V93.2198C291.944 92.894 290.641 92.7311 289.416 92.7311C285.987 92.7311 282.31 94.6083 279.619 98.0369ZM233.007 107.749C233.659 113.954 238.553 118.197 245.41 118.197C249.165 118.197 253.33 116.809 257.573 114.357V123.1C252.919 125.217 248.265 126.28 243.696 126.28C231.37 126.28 222.721 117.297 222.721 104.568C222.721 92.2424 231.207 83.5081 242.882 83.5081C253.571 83.5081 260.839 91.9166 260.839 103.909C260.839 105.057 260.839 106.36 260.676 107.749H233.007ZM242.471 91.5831C237.413 91.5831 233.496 95.3452 233.007 100.977H250.801C250.476 95.4228 247.125 91.5831 242.471 91.5831ZM196.511 125.303L188.18 97.5482L179.934 125.303H170.548L156.508 84.4855H166.957L175.202 112.24L183.448 84.4855H192.911L201.157 112.24L209.403 84.4855H219.851L205.897 125.303H196.511ZM132.663 126.28C120.337 126.28 111.603 117.383 111.603 104.894C111.603 92.32 120.337 83.5081 132.663 83.5081C144.989 83.5081 153.646 92.32 153.646 104.894C153.646 117.383 144.989 126.28 132.663 126.28ZM132.663 92.2424C126.543 92.2424 122.3 97.3853 122.3 104.894C122.3 112.403 126.543 117.546 132.663 117.546C138.706 117.546 142.949 112.403 142.949 104.894C142.949 97.3853 138.706 92.2424 132.663 92.2424ZM86.7808 105.134H77.3949V125.303H66.9463V69.1345H86.7808C98.2146 69.1345 106.375 76.5656 106.375 87.1771C106.375 97.7886 98.2146 105.134 86.7808 105.134ZM85.3147 77.6283H77.3949V96.6484H85.3147C91.3574 96.6484 95.6005 92.8087 95.6005 87.1771C95.6005 81.468 91.3574 77.6283 85.3147 77.6283ZM862.383 109.153H819.262C820.247 119.477 827.81 122.518 836.397 122.518C845.139 122.518 852.027 120.672 858.031 117.646V135.387C852.05 138.707 844.146 141.096 833.62 141.096C812.164 141.096 797.131 127.661 797.131 101.101C797.131 78.6677 809.884 60.8578 830.835 60.8578C851.756 60.8578 862.677 78.66 862.677 101.217C862.677 103.35 862.483 107.966 862.383 109.153ZM830.695 78.8151C825.188 78.8151 819.068 82.9729 819.068 92.894H841.842C841.842 82.9806 836.102 78.8151 830.695 78.8151ZM761.48 141.096C753.77 141.096 749.061 137.846 745.897 135.526L745.85 160.449L723.828 165.134L723.82 62.3239H743.213L744.361 67.7615C747.401 64.9224 752.979 60.8578 761.612 60.8578C777.079 60.8578 791.647 74.7893 791.647 100.434C791.647 128.421 777.235 141.096 761.48 141.096ZM756.345 80.3665C751.295 80.3665 748.123 82.2127 745.827 84.7337L745.959 117.46C748.1 119.78 751.179 121.641 756.345 121.641C764.49 121.641 769.951 112.775 769.951 100.915C769.951 89.3956 764.405 80.3665 756.345 80.3665ZM691.986 62.3239H714.093V139.521H691.986V62.3239ZM691.986 37.6723L714.093 32.9716V50.9134L691.986 55.6141V37.6723ZM668.412 87.1849V139.521H646.398V62.3239H665.441L666.822 68.8319C671.981 59.3529 682.274 61.2767 685.206 62.3316V82.5772C682.406 81.6697 673.617 80.351 668.412 87.1849ZM621.204 112.442C621.204 125.419 635.104 121.378 637.92 120.253V138.179C634.988 139.793 629.666 141.096 622.468 141.096C609.397 141.096 599.585 131.469 599.585 118.43L599.686 47.7718L621.188 43.1952L621.204 62.3239H637.928V81.1034H621.204V112.442ZM593.752 116.196C593.752 132.051 581.131 141.096 562.817 141.096C555.223 141.096 546.923 139.622 538.732 136.1V115.071C546.124 119.089 555.541 122.107 562.84 122.107C567.75 122.107 571.288 120.788 571.288 116.716C571.288 106.205 537.809 110.161 537.809 85.7809C537.809 70.1894 549.716 60.8578 567.58 60.8578C574.879 60.8578 582.171 61.9748 589.47 64.8836V85.6335C582.768 82.011 574.259 79.9632 567.564 79.9632C562.949 79.9632 560.079 81.2974 560.079 84.7337C560.079 94.6471 593.752 89.9308 593.752 116.196Z" fill="#737373" style="fill:#737373;fill:color(display-p3 0.4510 0.4510 0.4510);fill-opacity:1;"/>
</svg>
